<?xml version="1.0" encoding="utf-8"?>
<!-- Generator: Adobe Illustrator 26.1.0, SVG Export Plug-In . SVG Version: 6.00 Build 0)  -->
<svg version="1.1" id="Layer_1" xmlns="http://www.w3.org/2000/svg" xmlns:xlink="http://www.w3.org/1999/xlink" x="0px" y="0px"
	 viewBox="0 0 21 23" style="enable-background:new 0 0 21 23;" xml:space="preserve">
<style type="text/css">
	.st0{fill-rule:evenodd;clip-rule:evenodd;}
</style>
<g id="Layer_2_00000152966265009962900570000002101507909825308819_">
	<g id="Icons">
		<path class="st0" d="M19,15.5c0-3-2.5-5.5-5.5-5.5S8,12.5,8,15.5s2.5,5.5,5.5,5.5S19,18.5,19,15.5z M16,6.7c0-0.3-0.1-0.6-0.4-0.8
			l-5.5-5.5C9.9,0.1,9.6,0,9.3,0H2C0.9,0,0,0.9,0,2v16c0,1.1,0.9,2,2,2h5.5c2.5,3.3,7.2,4,10.5,1.5s4-7.2,1.5-10.5
			c-0.9-1.2-2.1-2.1-3.5-2.6V6.7z M14.5,13c0-0.6-0.4-1-1-1s-1,0.4-1,1v1.5H11c-0.6,0-1,0.4-1,1c0,0.6,0.4,1,1,1h1.5V18
			c0,0.6,0.4,1,1,1s1-0.4,1-1v-1.5H16c0.6,0,1-0.4,1-1c0-0.6-0.4-1-1-1h-1.5V13z M14,7H9V2L14,7z M2,2v16h4.4
			C6.1,17.2,6,16.4,6,15.5c0-2.7,1.4-5.2,3.8-6.5H8C7.4,9,7,8.6,7,8V2H2z"/>
	</g>
</g>
</svg>
