<?xml version="1.0" encoding="UTF-8"?><svg id="Ebene_1" xmlns="http://www.w3.org/2000/svg" viewBox="0 0 283.46 56.69"><defs><style>.cls-1{fill:#eb6608;}.cls-2{fill:#fff;}.cls-3{fill:#e4006d;}</style></defs><path class="cls-2" d="m141.38,40.8c0,1.95-.62,2.57-2.57,2.57h-3.9c-2,0-2.76-.57-3.33-2.43l-3.52-11.19c-2.28-7.38-3.9-14.66-4.05-15.28.09.86.81,9.38.81,14.76v11.66c0,1.86-.57,2.48-2.43,2.48h-.86c-1.86,0-2.48-.62-2.48-2.48V14.15c0-1.95.62-2.57,2.57-2.57h3.95c1.95,0,2.76.57,3.33,2.43l3.43,10.95c2.24,7.38,3.95,14.85,4.09,15.52-.05-.86-.81-9.57-.81-14.99v-11.47c0-1.81.62-2.43,2.48-2.43h.86c1.86,0,2.43.62,2.43,2.43v26.8Z"/><path class="cls-2" d="m169.13,40.94c.43,1.76-.14,2.43-1.9,2.43h-1.28c-1.9,0-2.62-.57-3-2.43l-.86-4.09h-8.52l-.9,4.09c-.38,1.86-1.05,2.43-2.95,2.43h-1.29c-1.81,0-2.38-.67-1.95-2.43l6.09-26.84c.43-1.95,1.14-2.52,3.09-2.52h4.28c2,0,2.71.57,3.14,2.52l6.05,26.84Zm-8.76-12.09c-1.9-8.9-2.52-13.8-2.62-14.56-.09.71-.57,5.57-2.48,14.52l-.57,2.62h6.19l-.52-2.57Z"/><path class="cls-2" d="m196.54,40.8c0,1.95-.62,2.57-2.57,2.57h-3.9c-2,0-2.76-.57-3.33-2.43l-3.52-11.19c-2.28-7.38-3.9-14.66-4.05-15.28.09.86.81,9.38.81,14.76v11.66c0,1.86-.57,2.48-2.43,2.48h-.86c-1.86,0-2.48-.62-2.48-2.48V14.15c0-1.95.62-2.57,2.57-2.57h3.95c1.95,0,2.76.57,3.33,2.43l3.43,10.95c2.24,7.38,3.95,14.85,4.09,15.52-.05-.86-.81-9.57-.81-14.99v-11.47c0-1.81.62-2.43,2.48-2.43h.86c1.86,0,2.43.62,2.43,2.43v26.8Z"/><path class="cls-2" d="m203.01,21.14c0-6.04,4.33-9.8,10.28-9.8s10.28,3.76,10.28,9.8v12.66c0,6.05-4.33,9.81-10.28,9.81s-10.28-3.76-10.28-9.81v-12.66Zm6,12.66c0,2.62,1.57,4.28,4.28,4.28s4.28-1.67,4.28-4.28v-12.66c0-2.62-1.57-4.28-4.28-4.28s-4.28,1.67-4.28,4.28v12.66Z"/><path class="cls-2" d="m231.19,13.48c0-1.48.43-1.9,1.9-1.9h6.09c5.43,0,9.14,3.76,9.14,9v3.81c0,5.24-3.71,9-9.14,9h-4.81v8.42c0,1.24-.33,1.57-1.52,1.57h-.1c-1.24,0-1.57-.33-1.57-1.57V13.48Zm8,16.85c3.76,0,5.95-2.48,5.95-5.95v-3.81c0-3.47-2.19-5.95-6-5.95h-4.76v15.71h4.81Z"/><path class="cls-2" d="m268.08,11.58c1.19,0,1.43.43,1.05,1.52l-7.38,20.56v8.14c0,1.24-.33,1.57-1.52,1.57h-.1c-1.24,0-1.57-.33-1.57-1.57v-8.14l-7.43-20.51c-.43-1.09-.09-1.57,1.14-1.57h.09c1.28,0,1.71.33,2.14,1.57l2.81,8.14c1.62,4.57,2.86,8.38,2.86,8.42,0-.05,1.24-3.9,2.81-8.42l2.81-8.14c.43-1.24.86-1.57,2.19-1.57h.1Z"/><path class="cls-3" d="m77.24,31.18l-2.75,2.37h22.71c1.31,0,2.37-1.06,2.37-2.37h-22.33Z"/><path class="cls-1" d="m67.64,35.52l13.63,6.07h-24.19c-5.99,0-11.6-2.9-15.06-7.78l-5.58-7.79h-3.88l7.7,15.57H14.17c0-15.59,12.64-28.24,28.24-28.24h42.55l3.17,4.49-20.49,17.68Zm-2.58-13.19c0-2.91-2.36-5.28-5.28-5.28s-5.28,2.36-5.28,5.28,2.36,5.28,5.28,5.28,5.28-2.36,5.28-5.28Z"/></svg>